<?xml version="1.0" encoding="UTF-8"?>
<svg width="191px" height="190px" viewBox="0 0 191 190" version="1.1" xmlns="http://www.w3.org/2000/svg" xmlns:xlink="http://www.w3.org/1999/xlink">
    <title>avatar-1</title>
    <g id="Page-1" stroke="none" stroke-width="1" fill="none" fill-rule="evenodd">
        <g id="44225-O40U0E" transform="translate(-547.000000, -548.000000)">
            <g id="avatar-1" transform="translate(547.751000, 548.434000)">
                <path d="M189.304,94.652 C189.304,146.927 146.927,189.305 94.652,189.305 C42.377,189.305 0,146.927 0,94.652 C0,42.377 42.377,0 94.652,0 C146.927,0 189.304,42.377 189.304,94.652" id="Fill-164" fill="#F9CC6D"></path>
                <path d="M45.857,79.777 C45.857,91.719 36.176,101.4 24.234,101.4 C12.292,101.4 2.611,91.719 2.611,79.777 C2.611,67.835 12.292,58.154 24.234,58.154 C36.176,58.154 45.857,67.835 45.857,79.777" id="Fill-165" fill="#BB6836"></path>
                <path d="M39.692,82.735 C39.692,89.639 34.096,95.235 27.192,95.235 C20.289,95.235 14.692,89.639 14.692,82.735 C14.692,75.832 20.289,70.235 27.192,70.235 C34.096,70.235 39.692,75.832 39.692,82.735" id="Fill-166" fill="#F4C0A8"></path>
                <path d="M143.447,79.777 C143.447,91.719 153.128,101.4 165.07,101.4 C177.012,101.4 186.693,91.719 186.693,79.777 C186.693,67.835 177.012,58.154 165.07,58.154 C153.128,58.154 143.447,67.835 143.447,79.777" id="Fill-167" fill="#BB6836"></path>
                <path d="M149.611,82.735 C149.611,89.639 155.208,95.235 162.111,95.235 C169.015,95.235 174.611,89.639 174.611,82.735 C174.611,75.832 169.015,70.235 162.111,70.235 C155.208,70.235 149.611,75.832 149.611,82.735" id="Fill-168" fill="#F4C0A8"></path>
                <path d="M118.187,66.623 C107.742,68.065 98.358,75.328 94.652,84.423 C90.946,75.328 81.562,68.065 71.117,66.623 C56.927,64.663 42.377,72.188 34.524,83.487 C28.661,91.923 26.206,102.084 26.392,112.223 C32.592,144.404 58.138,164.342 94.652,164.342 C131.166,164.342 156.711,144.404 162.912,112.223 C163.098,102.084 160.643,91.923 154.78,83.487 C146.926,72.188 132.377,64.663 118.187,66.623" id="Fill-169" fill="#FBE1C5"></path>
                <path d="M162.088,80.483 C153.842,47.22 126.318,31.967 94.652,31.967 C62.986,31.967 35.462,47.22 27.216,80.483 C24.657,90.807 24.385,101.342 26.252,111.539 C26.294,111.77 26.348,111.993 26.392,112.223 C26.206,102.084 28.661,91.923 34.524,83.487 C42.377,72.188 56.927,64.663 71.117,66.623 C81.562,68.065 90.946,75.328 94.652,84.423 C98.358,75.328 107.742,68.065 118.187,66.623 C132.377,64.663 146.926,72.188 154.78,83.487 C160.643,91.923 163.098,102.084 162.912,112.223 C162.956,111.993 163.009,111.77 163.052,111.539 C164.919,101.342 164.647,90.807 162.088,80.483" id="Fill-170" fill="#BB6836"></path>
                <path d="M68.947,104.311 C68.947,108.729 65.366,112.311 60.947,112.311 C56.529,112.311 52.947,108.729 52.947,104.311 C52.947,99.892 56.529,96.311 60.947,96.311 C65.366,96.311 68.947,99.892 68.947,104.311" id="Fill-171" fill="#251914"></path>
                <path d="M56.316,104.311 C56.316,104.311 56.239,104.182 56.136,103.96 C56.03,103.759 55.931,103.371 55.918,102.946 C55.875,102.507 55.969,102.002 56.15,101.479 C56.26,101.229 56.371,100.96 56.54,100.723 C56.689,100.47 56.894,100.254 57.089,100.031 C57.312,99.835 57.527,99.629 57.78,99.48 C58.016,99.31 58.287,99.201 58.536,99.089 C58.801,99.005 59.05,98.917 59.302,98.89 C59.548,98.846 59.785,98.841 60.003,98.857 C60.216,98.852 60.415,98.897 60.585,98.938 C60.754,98.966 60.899,99.024 61.015,99.076 C61.248,99.18 61.369,99.258 61.369,99.258 C61.369,99.258 61.243,99.349 61.042,99.473 C60.84,99.591 60.571,99.777 60.282,99.971 C59.699,100.38 59.067,100.883 58.503,101.445 C57.94,102.007 57.434,102.639 57.027,103.222 C56.833,103.517 56.651,103.749 56.531,103.98 C56.406,104.191 56.316,104.311 56.316,104.311" id="Fill-172" fill="#FFFFFE"></path>
                <path d="M136.356,104.311 C136.356,108.729 132.775,112.311 128.356,112.311 C123.938,112.311 120.356,108.729 120.356,104.311 C120.356,99.892 123.938,96.311 128.356,96.311 C132.775,96.311 136.356,99.892 136.356,104.311" id="Fill-173" fill="#251914"></path>
                <path d="M123.725,104.311 C123.725,104.311 123.648,104.182 123.545,103.96 C123.439,103.759 123.34,103.371 123.327,102.946 C123.284,102.507 123.378,102.002 123.559,101.479 C123.669,101.229 123.78,100.96 123.949,100.723 C124.097,100.47 124.302,100.254 124.498,100.031 C124.721,99.835 124.936,99.629 125.189,99.48 C125.425,99.31 125.696,99.201 125.945,99.089 C126.209,99.005 126.458,98.917 126.711,98.89 C126.957,98.846 127.194,98.841 127.412,98.857 C127.625,98.852 127.824,98.897 127.994,98.938 C128.163,98.966 128.308,99.024 128.424,99.076 C128.657,99.18 128.778,99.258 128.778,99.258 C128.778,99.258 128.652,99.349 128.451,99.473 C128.249,99.591 127.98,99.777 127.69,99.971 C127.107,100.38 126.476,100.883 125.912,101.445 C125.349,102.007 124.843,102.639 124.436,103.222 C124.242,103.517 124.06,103.749 123.94,103.98 C123.815,104.191 123.725,104.311 123.725,104.311" id="Fill-174" fill="#FFFFFE"></path>
                <path d="M93.933,128.818 C94.37,129.691 93.933,138.728 93.933,138.728 C93.933,138.728 90.773,145.841 81.819,142.701 M95.371,128.818 C94.934,129.691 95.371,138.728 95.371,138.728 C95.371,138.728 98.531,145.841 107.484,142.701" id="Stroke-175" stroke="#8F7C6A" stroke-width="3" stroke-linecap="round" stroke-linejoin="round"></path>
                <path d="M94.652,131.067 C91.614,131.067 89.152,128.605 89.152,125.567 C89.152,122.53 91.614,120.067 94.652,120.067 C97.689,120.067 100.152,122.53 100.152,125.567 C100.152,128.605 97.689,131.067 94.652,131.067 Z" id="Fill-176" fill="#8F7C6A"></path>
            </g>
        </g>
    </g>
</svg>