<?xml version="1.0" encoding="UTF-8"?>
<svg width="190px" height="190px" viewBox="0 0 190 190" version="1.1" xmlns="http://www.w3.org/2000/svg" xmlns:xlink="http://www.w3.org/1999/xlink">
    <title>avatar-2</title>
    <defs>
        <path d="M6.047,0 C2.175,8.313 0,17.575 0,27.35 C0,63.176 29.043,92.22 64.87,92.22 C100.697,92.22 129.74,63.176 129.74,27.35 C129.74,17.575 127.565,8.313 123.693,0 C108.155,10.794 87.517,17.372 64.87,17.372 C42.223,17.372 21.585,10.794 6.047,0" id="path-1"></path>
    </defs>
    <g id="Page-1" stroke="none" stroke-width="1" fill="none" fill-rule="evenodd">
        <g id="44225-O40U0E" transform="translate(-60.000000, -548.000000)">
            <g id="avatar-2" transform="translate(60.147000, 548.434000)">
                <path d="M189.304,94.652 C189.304,146.927 146.927,189.305 94.652,189.305 C42.377,189.305 1.42108547e-14,146.927 1.42108547e-14,94.652 C1.42108547e-14,42.377 42.377,0 94.652,0 C146.927,0 189.304,42.377 189.304,94.652" id="Fill-146" fill="#D4E18D"></path>
                <path d="M71.215,62.696 C72.515,46.39 62.599,29.783 47.628,23.193" id="Stroke-147" stroke="#251914" stroke-width="6"></path>
                <path d="M55.53,22.406 C54.235,27.243 49.262,30.115 44.424,28.819 C39.586,27.523 36.715,22.55 38.011,17.713 C39.307,12.875 44.279,10.003 49.117,11.299 C53.955,12.595 56.826,17.568 55.53,22.406" id="Fill-148" fill="#251914"></path>
                <path d="M118.089,62.696 C116.789,46.39 126.705,29.783 141.676,23.193" id="Stroke-149" stroke="#251914" stroke-width="6"></path>
                <path d="M133.774,22.406 C135.069,27.243 140.042,30.115 144.88,28.819 C149.718,27.523 152.589,22.55 151.293,17.713 C149.997,12.875 145.025,10.003 140.187,11.299 C135.349,12.595 132.478,17.568 133.774,22.406" id="Fill-150" fill="#251914"></path>
                <path d="M35.829,71.254 C31.957,79.567 29.782,88.829 29.782,98.604 C29.782,134.43 58.825,163.474 94.652,163.474 C130.479,163.474 159.522,134.43 159.522,98.604 C159.522,88.829 157.347,79.567 153.475,71.254 C137.937,82.048 117.299,88.626 94.652,88.626 C72.005,88.626 51.367,82.048 35.829,71.254" id="Fill-151" fill="#FACF5F"></path>
                <path d="M94.652,33.734 C68.6,33.734 46.148,49.099 35.829,71.254 C51.367,82.048 72.005,88.626 94.652,88.626 C117.299,88.626 137.937,82.048 153.475,71.254 C143.156,49.099 120.704,33.734 94.652,33.734" id="Fill-152" fill="#251914"></path>
                <path d="M78.954,62.458 C78.954,66.876 75.372,70.458 70.954,70.458 C66.535,70.458 62.954,66.876 62.954,62.458 C62.954,58.039 66.535,54.458 70.954,54.458 C75.372,54.458 78.954,58.039 78.954,62.458" id="Fill-153" fill="#251914"></path>
                <path d="M78.954,62.458 C78.954,66.876 75.372,70.458 70.954,70.458 C66.535,70.458 62.954,66.876 62.954,62.458 C62.954,58.039 66.535,54.458 70.954,54.458 C75.372,54.458 78.954,58.039 78.954,62.458 Z" id="Stroke-154" stroke="#FFFFFE" stroke-width="2"></path>
                <path d="M66.323,62.458 C66.323,62.458 66.245,62.33 66.142,62.107 C66.036,61.906 65.937,61.518 65.924,61.093 C65.881,60.655 65.975,60.149 66.156,59.626 C66.266,59.376 66.377,59.107 66.546,58.87 C66.695,58.617 66.9,58.401 67.096,58.178 C67.318,57.982 67.533,57.776 67.786,57.628 C68.022,57.457 68.293,57.348 68.542,57.236 C68.807,57.152 69.056,57.064 69.308,57.037 C69.554,56.993 69.792,56.988 70.009,57.004 C70.222,56.999 70.421,57.044 70.591,57.085 C70.76,57.113 70.905,57.171 71.021,57.224 C71.254,57.327 71.375,57.405 71.375,57.405 C71.375,57.405 71.249,57.496 71.048,57.621 C70.846,57.738 70.577,57.924 70.288,58.118 C69.705,58.527 69.073,59.03 68.509,59.592 C67.946,60.154 67.441,60.786 67.033,61.37 C66.84,61.664 66.657,61.896 66.537,62.127 C66.412,62.338 66.323,62.458 66.323,62.458" id="Fill-155" fill="#FFFFFE"></path>
                <path d="M126.35,62.458 C126.35,66.876 122.769,70.458 118.35,70.458 C113.932,70.458 110.35,66.876 110.35,62.458 C110.35,58.039 113.932,54.458 118.35,54.458 C122.769,54.458 126.35,58.039 126.35,62.458" id="Fill-156" fill="#251914"></path>
                <path d="M126.35,62.458 C126.35,66.876 122.769,70.458 118.35,70.458 C113.932,70.458 110.35,66.876 110.35,62.458 C110.35,58.039 113.932,54.458 118.35,54.458 C122.769,54.458 126.35,58.039 126.35,62.458 Z" id="Stroke-157" stroke="#FFFFFE" stroke-width="2"></path>
                <path d="M113.719,62.458 C113.719,62.458 113.642,62.33 113.539,62.107 C113.433,61.906 113.334,61.518 113.321,61.093 C113.278,60.655 113.372,60.149 113.553,59.626 C113.663,59.376 113.774,59.107 113.943,58.87 C114.092,58.617 114.297,58.401 114.492,58.178 C114.715,57.982 114.93,57.776 115.183,57.628 C115.419,57.457 115.69,57.348 115.939,57.236 C116.204,57.152 116.453,57.064 116.705,57.037 C116.951,56.993 117.188,56.988 117.406,57.004 C117.619,56.999 117.818,57.044 117.988,57.085 C118.157,57.113 118.302,57.171 118.418,57.224 C118.651,57.327 118.772,57.405 118.772,57.405 C118.772,57.405 118.646,57.496 118.445,57.621 C118.243,57.738 117.974,57.924 117.685,58.118 C117.102,58.527 116.47,59.03 115.906,59.592 C115.343,60.154 114.837,60.786 114.43,61.37 C114.236,61.664 114.054,61.896 113.934,62.127 C113.809,62.338 113.719,62.458 113.719,62.458" id="Fill-158" fill="#FFFFFE"></path>
                <g id="Group-161" transform="translate(29.782000, 71.254000)">
                    <mask id="mask-2" fill="white">
                        <use xlink:href="#path-1"></use>
                    </mask>
                    <g id="Clip-160"></g>
                    <path d="M-14.57,25.112 L149.018,25.112 M-4.564,46.125 L149.018,46.125 M-4.564,65.136 L149.018,65.136 M-4.564,86.149 L149.018,86.149" id="Stroke-159" stroke="#251914" stroke-width="9" stroke-linecap="round" mask="url(#mask-2)"></path>
                </g>
                <path d="M22.357,123.127 C31.237,105.564 79.269,89.547 79.269,89.547 C79.269,89.547 94.841,137.724 85.961,155.287 C77.08,172.851 55.642,179.89 38.079,171.009 C20.515,162.129 13.476,140.691 22.357,123.127" id="Fill-162" fill="#78C7CA"></path>
                <path d="M166.947,123.127 C158.067,105.564 110.035,89.547 110.035,89.547 C110.035,89.547 94.463,137.724 103.343,155.287 C112.224,172.851 133.662,179.89 151.225,171.009 C168.789,162.129 175.828,140.691 166.947,123.127" id="Fill-163" fill="#78C7CA"></path>
            </g>
        </g>
    </g>
</svg>