<?xml version="1.0" encoding="UTF-8"?>
<svg width="190px" height="190px" viewBox="0 0 190 190" version="1.1" xmlns="http://www.w3.org/2000/svg" xmlns:xlink="http://www.w3.org/1999/xlink">
    <title>avatar-6</title>
    <g id="Page-1" stroke="none" stroke-width="1" fill="none" fill-rule="evenodd">
        <g id="44225-O40U0E" transform="translate(-305.000000, -543.000000)">
            <g id="avatar-6" transform="translate(305.348000, 543.328000)">
                <path d="M189.304,94.653 C189.304,146.927 146.927,189.305 94.652,189.305 C42.377,189.305 0,146.927 0,94.653 C0,42.378 42.377,0 94.652,0 C146.927,0 189.304,42.378 189.304,94.653" id="Fill-85" fill="#EEB0C0"></path>
                <path d="M59.491,47.329 C59.491,59.271 49.81,68.952 37.868,68.952 C25.926,68.952 16.245,59.271 16.245,47.329 C16.245,35.387 25.926,25.706 37.868,25.706 C49.81,25.706 59.491,35.387 59.491,47.329" id="Fill-86" fill="#0A0B09"></path>
                <path d="M59.491,47.329 C59.491,59.271 49.81,68.952 37.868,68.952 C25.926,68.952 16.245,59.271 16.245,47.329 C16.245,35.387 25.926,25.706 37.868,25.706 C49.81,25.706 59.491,35.387 59.491,47.329 Z" id="Stroke-87" stroke="#0A0B09" stroke-width="3"></path>
                <path d="M51.248,50.288 C51.248,56.043 46.582,60.709 40.827,60.709 C35.071,60.709 30.405,56.043 30.405,50.288 C30.405,44.532 35.071,39.866 40.827,39.866 C46.582,39.866 51.248,44.532 51.248,50.288" id="Fill-88" fill="#F4C0A8"></path>
                <path d="M129.064,47.329 C129.064,59.271 138.745,68.952 150.687,68.952 C162.629,68.952 172.31,59.271 172.31,47.329 C172.31,35.387 162.629,25.706 150.687,25.706 C138.745,25.706 129.064,35.387 129.064,47.329" id="Fill-89" fill="#0A0B09"></path>
                <path d="M129.064,47.329 C129.064,59.271 138.745,68.952 150.687,68.952 C162.629,68.952 172.31,59.271 172.31,47.329 C172.31,35.387 162.629,25.706 150.687,25.706 C138.745,25.706 129.064,35.387 129.064,47.329 Z" id="Stroke-90" stroke="#0A0B09" stroke-width="3"></path>
                <path d="M137.307,50.288 C137.307,56.043 141.973,60.709 147.729,60.709 C153.485,60.709 158.151,56.043 158.151,50.288 C158.151,44.532 153.485,39.866 147.729,39.866 C141.973,39.866 137.307,44.532 137.307,50.288" id="Fill-91" fill="#F4C0A8"></path>
                <path d="M59.491,47.329 C59.491,59.271 49.81,68.952 37.868,68.952 C25.926,68.952 16.245,59.271 16.245,47.329 C16.245,35.387 25.926,25.706 37.868,25.706 C49.81,25.706 59.491,35.387 59.491,47.329" id="Fill-92" fill="#0A0B09"></path>
                <path d="M59.491,47.329 C59.491,59.271 49.81,68.952 37.868,68.952 C25.926,68.952 16.245,59.271 16.245,47.329 C16.245,35.387 25.926,25.706 37.868,25.706 C49.81,25.706 59.491,35.387 59.491,47.329 Z" id="Stroke-93" stroke="#0A0B09" stroke-width="3"></path>
                <path d="M51.248,50.288 C51.248,56.043 46.582,60.709 40.827,60.709 C35.071,60.709 30.405,56.043 30.405,50.288 C30.405,44.532 35.071,39.866 40.827,39.866 C46.582,39.866 51.248,44.532 51.248,50.288" id="Fill-94" fill="#F4C0A8"></path>
                <path d="M129.064,47.329 C129.064,59.271 138.745,68.952 150.687,68.952 C162.629,68.952 172.31,59.271 172.31,47.329 C172.31,35.387 162.629,25.706 150.687,25.706 C138.745,25.706 129.064,35.387 129.064,47.329" id="Fill-95" fill="#0A0B09"></path>
                <path d="M129.064,47.329 C129.064,59.271 138.745,68.952 150.687,68.952 C162.629,68.952 172.31,59.271 172.31,47.329 C172.31,35.387 162.629,25.706 150.687,25.706 C138.745,25.706 129.064,35.387 129.064,47.329 Z" id="Stroke-96" stroke="#0A0B09" stroke-width="3"></path>
                <path d="M137.307,50.288 C137.307,56.043 141.973,60.709 147.729,60.709 C153.485,60.709 158.151,56.043 158.151,50.288 C158.151,44.532 153.485,39.866 147.729,39.866 C141.973,39.866 137.307,44.532 137.307,50.288" id="Fill-97" fill="#F4C0A8"></path>
                <path d="M123.505,36.087 C114.544,32.557 104.665,30.59 94.278,30.59 C53.607,30.59 20.637,60.587 20.637,97.59 C20.637,134.593 53.607,164.59 94.278,164.59 C125.699,164.59 152.508,146.678 163.084,121.471 C166.198,114.051 167.919,106.005 167.919,97.59 C167.919,70.037 149.633,46.379 123.505,36.087" id="Fill-98" fill="#FFFFFE"></path>
                <path d="M82.288,93.418 C82.288,108.134 70.443,122.33 54.823,124.363 C37.964,126.557 25.073,113.76 27.135,96.802 C29.054,81.023 43.242,69.015 57.983,69.015 C71.761,69.015 82.288,79.606 82.288,93.418" id="Fill-99" fill="#0A0B09"></path>
                <path d="M106.268,93.418 C106.268,108.134 118.113,122.33 133.733,124.363 C150.591,126.557 163.482,113.76 161.42,96.802 C159.501,81.023 145.314,69.015 130.573,69.015 C116.794,69.015 106.268,79.606 106.268,93.418" id="Fill-100" fill="#0A0B09"></path>
                <path d="M68.573,102.285 C68.573,106.703 64.992,110.285 60.573,110.285 C56.155,110.285 52.573,106.703 52.573,102.285 C52.573,97.866 56.155,94.285 60.573,94.285 C64.992,94.285 68.573,97.866 68.573,102.285 Z" id="Stroke-101" stroke="#FFFFFE" stroke-width="2"></path>
                <path d="M55.942,102.285 C55.942,102.285 55.865,102.157 55.762,101.934 C55.656,101.733 55.557,101.345 55.544,100.92 C55.501,100.482 55.595,99.976 55.776,99.453 C55.886,99.203 55.997,98.934 56.166,98.697 C56.314,98.444 56.519,98.228 56.715,98.005 C56.938,97.809 57.153,97.603 57.406,97.455 C57.642,97.284 57.913,97.175 58.162,97.063 C58.426,96.979 58.675,96.892 58.928,96.864 C59.174,96.82 59.411,96.815 59.629,96.831 C59.842,96.826 60.041,96.871 60.211,96.912 C60.38,96.94 60.525,96.998 60.641,97.051 C60.874,97.154 60.995,97.232 60.995,97.232 C60.995,97.232 60.869,97.323 60.668,97.448 C60.466,97.566 60.197,97.751 59.907,97.945 C59.324,98.354 58.693,98.857 58.129,99.419 C57.566,99.981 57.06,100.613 56.653,101.197 C56.459,101.491 56.277,101.723 56.157,101.954 C56.032,102.165 55.942,102.285 55.942,102.285" id="Fill-102" fill="#FFFFFE"></path>
                <path d="M135.982,102.285 C135.982,106.703 132.4,110.285 127.982,110.285 C123.564,110.285 119.982,106.703 119.982,102.285 C119.982,97.866 123.564,94.285 127.982,94.285 C132.4,94.285 135.982,97.866 135.982,102.285 Z" id="Stroke-103" stroke="#FFFFFE" stroke-width="2"></path>
                <path d="M123.351,102.285 C123.351,102.285 123.274,102.157 123.171,101.934 C123.064,101.733 122.966,101.345 122.953,100.92 C122.91,100.482 123.004,99.976 123.185,99.453 C123.295,99.203 123.406,98.934 123.575,98.697 C123.723,98.444 123.928,98.228 124.124,98.005 C124.347,97.809 124.562,97.603 124.815,97.455 C125.051,97.284 125.321,97.175 125.571,97.063 C125.835,96.979 126.084,96.892 126.336,96.864 C126.583,96.82 126.82,96.815 127.038,96.831 C127.251,96.826 127.45,96.871 127.62,96.912 C127.789,96.94 127.933,96.998 128.05,97.051 C128.282,97.154 128.404,97.232 128.404,97.232 C128.404,97.232 128.277,97.323 128.076,97.448 C127.875,97.566 127.606,97.751 127.316,97.945 C126.733,98.354 126.102,98.857 125.538,99.419 C124.975,99.981 124.469,100.613 124.062,101.197 C123.868,101.491 123.686,101.723 123.566,101.954 C123.441,102.165 123.351,102.285 123.351,102.285" id="Fill-104" fill="#FFFFFE"></path>
                <path d="M93.559,122.79 C93.996,123.663 93.559,126.696 93.559,126.696 C93.559,126.696 90.399,133.809 81.445,130.669 M94.996,122.79 C94.56,123.663 94.996,126.696 94.996,126.696 C94.996,126.696 98.157,133.809 107.11,130.669" id="Stroke-105" stroke="#0A0B09" stroke-width="3" stroke-linecap="round" stroke-linejoin="round"></path>
                <path d="M102.363,110.233 L86.032,110.233 C83.791,110.233 82.411,114.247 83.574,115.823 C86.353,119.592 90.901,124.979 94.197,124.979 C97.494,124.979 102.042,119.592 104.821,115.823 C105.984,114.247 104.603,110.233 102.363,110.233" id="Fill-106" fill="#0A0B09"></path>
            </g>
        </g>
    </g>
</svg>