<?xml version="1.0" encoding="UTF-8"?>
<svg width="190px" height="191px" viewBox="0 0 190 191" version="1.1" xmlns="http://www.w3.org/2000/svg" xmlns:xlink="http://www.w3.org/1999/xlink">
    <title>avatar-4</title>
    <g id="Page-1" stroke="none" stroke-width="1" fill="none" fill-rule="evenodd">
        <g id="44225-O40U0E" transform="translate(-543.000000, -100.000000)">
            <g id="avatar-4" transform="translate(543.045000, 100.825000)">
                <path d="M189.305,94.652 C189.305,146.927 146.928,189.305 94.653,189.305 C42.378,189.305 0,146.927 0,94.652 C0,42.377 42.378,0 94.653,0 C146.928,0 189.305,42.377 189.305,94.652" id="Fill-108" fill="#4A93C0"></path>
                <path d="M33.859,67.086 C33.043,56.398 33.308,45.128 38.247,33.486 C39.647,30.186 43.386,28.778 46.225,30.488 C56.268,36.534 62.92,46.144 67.857,57.871 L33.859,67.086" id="Fill-133" fill="#B46D6B"></path>
                <path d="M155.705,67.086 C156.521,56.398 156.256,45.128 151.317,33.486 C149.917,30.186 146.178,28.778 143.339,30.488 C133.295,36.534 126.643,46.144 121.707,57.871 L155.705,67.086" id="Fill-134" fill="#B46D6B"></path>
                <path d="M94.653,158.058 C59.914,158.058 31.19,136.861 26.421,109.294 C26.575,104.573 27.311,99.884 28.722,95.404 C29.101,94.202 29.527,93.016 30.003,91.848 C31.193,88.928 32.693,86.123 34.525,83.487 C35.016,82.781 35.533,82.09 36.074,81.414 C37.157,80.064 38.338,78.777 39.602,77.567 C40.55,76.659 41.546,75.794 42.583,74.976 C43.62,74.158 44.699,73.387 45.813,72.669 C49.526,70.273 53.635,68.456 57.925,67.39 C59.211,67.07 60.514,66.818 61.828,66.638 C63.141,66.459 64.465,66.351 65.793,66.321 C67.565,66.281 69.344,66.378 71.118,66.623 C72.423,66.803 73.712,67.074 74.976,67.429 C76.871,67.96 78.709,68.679 80.458,69.559 C81.624,70.145 82.752,70.803 83.831,71.524 C84.91,72.246 85.941,73.031 86.915,73.872 C90.323,76.816 93.031,80.444 94.653,84.423 C96.274,80.444 98.982,76.816 102.391,73.872 C103.364,73.031 104.395,72.246 105.475,71.524 C106.554,70.803 107.681,70.145 108.847,69.559 C110.597,68.679 112.434,67.96 114.33,67.429 C115.593,67.074 116.882,66.803 118.188,66.623 C132.378,64.663 146.927,72.188 154.781,83.487 C155.88,85.069 156.859,86.711 157.724,88.403 C158.085,89.108 158.425,89.821 158.746,90.542 C159.708,92.705 160.495,94.937 161.115,97.217 C161.611,99.04 162.001,100.893 162.29,102.765 C162.482,104.012 162.63,105.268 162.734,106.529 C162.809,107.448 162.854,108.371 162.884,109.294 C158.115,136.861 129.391,158.058 94.653,158.058 Z M162.088,80.483 C153.843,47.219 126.318,31.967 94.653,31.967 C62.987,31.967 35.463,47.219 27.217,80.483 C24.658,90.807 24.386,101.342 26.253,111.539 C26.295,111.77 26.348,111.993 26.393,112.223 C32.593,144.404 58.139,164.342 94.653,164.342 C131.167,164.342 156.712,144.404 162.913,112.223 C162.957,111.993 163.01,111.77 163.052,111.539 C164.919,101.342 164.648,90.807 162.088,80.483 L162.088,80.483 Z" id="Fill-135" fill="#B46D6B"></path>
                <path d="M94.653,165.062 C129.391,165.062 158.115,144.866 162.884,117.299 C162.854,116.376 162.809,107.448 162.734,106.529 C162.63,105.268 162.482,104.012 162.29,102.765 C162.001,100.893 161.611,99.04 161.115,97.217 C160.288,94.178 159.166,91.222 157.724,88.403 C156.859,86.711 155.88,85.069 154.781,83.487 C146.927,72.188 132.378,64.663 118.188,66.623 C116.882,66.803 115.593,67.074 114.33,67.429 C112.434,67.96 110.597,68.679 108.847,69.559 C107.681,70.145 106.554,70.803 105.475,71.524 C104.395,72.246 103.364,73.031 102.391,73.872 C98.982,76.816 96.274,80.444 94.653,84.423 C93.031,80.444 90.323,76.816 86.915,73.872 C85.941,73.031 84.91,72.246 83.831,71.524 C82.752,70.803 81.624,70.145 80.458,69.559 C78.709,68.679 76.871,67.96 74.976,67.429 C73.712,67.074 72.423,66.803 71.118,66.623 C69.344,66.378 67.565,66.281 65.793,66.321 C63.137,66.381 60.498,66.75 57.925,67.39 C53.635,68.456 49.526,70.273 45.813,72.669 C43.585,74.106 41.499,75.751 39.602,77.567 C38.338,78.777 37.157,80.064 36.074,81.414 C35.533,82.09 35.016,82.781 34.525,83.487 C32.693,86.123 31.193,88.928 30.003,91.848 C29.527,93.016 29.101,94.202 28.722,95.404 C27.311,99.884 26.575,112.578 26.421,117.299 C31.19,144.866 59.914,165.062 94.653,165.062" id="Fill-136" fill="#FFFAF3"></path>
                <path d="M84.029,102.642 C84.029,115.897 73.284,126.642 60.029,126.642 C46.774,126.642 36.029,115.897 36.029,102.642 C36.029,89.387 46.774,78.642 60.029,78.642 C73.284,78.642 84.029,89.387 84.029,102.642" id="Fill-137" fill="#EFD7B9"></path>
                <path d="M153.276,102.642 C153.276,115.897 142.531,126.642 129.276,126.642 C116.022,126.642 105.276,115.897 105.276,102.642 C105.276,89.387 116.022,78.642 129.276,78.642 C142.531,78.642 153.276,89.387 153.276,102.642" id="Fill-138" fill="#EFD7B9"></path>
                <path d="M68.725,104.31 C68.725,108.729 65.143,112.31 60.725,112.31 C56.307,112.31 52.725,108.729 52.725,104.31 C52.725,99.892 56.307,96.31 60.725,96.31 C65.143,96.31 68.725,99.892 68.725,104.31" id="Fill-139" fill="#251914"></path>
                <path d="M56.094,104.31 C56.094,104.31 56.017,104.183 55.913,103.96 C55.807,103.759 55.708,103.371 55.695,102.945 C55.652,102.507 55.746,102.002 55.927,101.479 C56.037,101.229 56.148,100.96 56.318,100.723 C56.466,100.47 56.671,100.254 56.867,100.031 C57.09,99.835 57.305,99.629 57.558,99.481 C57.794,99.31 58.064,99.201 58.313,99.089 C58.578,99.005 58.827,98.917 59.079,98.89 C59.325,98.846 59.563,98.841 59.781,98.857 C59.994,98.852 60.192,98.897 60.362,98.938 C60.531,98.966 60.676,99.024 60.793,99.077 C61.025,99.18 61.146,99.258 61.146,99.258 C61.146,99.258 61.02,99.349 60.819,99.474 C60.618,99.591 60.348,99.777 60.059,99.971 C59.476,100.38 58.844,100.883 58.281,101.445 C57.717,102.007 57.212,102.639 56.805,103.222 C56.611,103.517 56.428,103.749 56.309,103.98 C56.184,104.191 56.094,104.31 56.094,104.31" id="Fill-140" fill="#FFFFFE"></path>
                <path d="M136.134,104.31 C136.134,108.729 132.552,112.31 128.134,112.31 C123.715,112.31 120.134,108.729 120.134,104.31 C120.134,99.892 123.715,96.31 128.134,96.31 C132.552,96.31 136.134,99.892 136.134,104.31" id="Fill-141" fill="#251914"></path>
                <path d="M123.503,104.31 C123.503,104.31 123.425,104.183 123.322,103.96 C123.216,103.759 123.117,103.371 123.104,102.945 C123.061,102.507 123.155,102.002 123.336,101.479 C123.446,101.229 123.557,100.96 123.727,100.723 C123.875,100.47 124.08,100.254 124.276,100.031 C124.498,99.835 124.713,99.629 124.967,99.481 C125.202,99.31 125.473,99.201 125.722,99.089 C125.987,99.005 126.236,98.917 126.488,98.89 C126.734,98.846 126.972,98.841 127.19,98.857 C127.403,98.852 127.601,98.897 127.771,98.938 C127.94,98.966 128.085,99.024 128.202,99.077 C128.434,99.18 128.555,99.258 128.555,99.258 C128.555,99.258 128.429,99.349 128.228,99.474 C128.027,99.591 127.757,99.777 127.468,99.971 C126.885,100.38 126.253,100.883 125.689,101.445 C125.126,102.007 124.621,102.639 124.213,103.222 C124.02,103.517 123.837,103.749 123.717,103.98 C123.592,104.191 123.503,104.31 123.503,104.31" id="Fill-142" fill="#FFFFFE"></path>
                <path d="M106.077,132.511 C106.077,139.903 100.962,150.128 94.653,150.128 C88.343,150.128 83.228,139.903 83.228,132.511 C83.228,125.12 88.343,119.128 94.653,119.128 C100.962,119.128 106.077,125.12 106.077,132.511" id="Fill-143" fill="#F9CC6D"></path>
                <path d="M95.034,84.585 C81.516,74.734 63.26,71.73 47.299,76.732 C41.28,78.618 35.606,81.559 29.482,83.073 C23.359,84.587 16.38,84.463 11.342,80.668 C20.949,82.103 27.301,77.779 35.651,72.816 C44.002,67.853 52.458,62.224 62.124,61.259 C76.697,59.804 92.605,70.142 95.034,84.585" id="Fill-144" fill="#804B49"></path>
                <path d="M94.272,84.585 C107.789,74.734 126.046,71.73 142.006,76.732 C148.026,78.618 153.7,81.559 159.823,83.073 C165.947,84.587 172.925,84.463 177.964,80.668 C168.356,82.103 162.005,77.779 153.654,72.816 C145.304,67.853 136.847,62.224 127.181,61.259 C112.609,59.804 96.701,70.142 94.272,84.585" id="Fill-145" fill="#804B49"></path>
            </g>
        </g>
    </g>
</svg>