<?xml version="1.0" encoding="UTF-8"?>
<svg width="190px" height="190px" viewBox="0 0 190 190" version="1.1" xmlns="http://www.w3.org/2000/svg" xmlns:xlink="http://www.w3.org/1999/xlink">
    <title>avatar-3</title>
    <g id="Page-1" stroke="none" stroke-width="1" fill="none" fill-rule="evenodd">
        <g id="44225-O40U0E" transform="translate(-305.000000, -101.000000)">
            <g id="avatar-3" transform="translate(305.348000, 101.476000)">
                <path d="M189.304,94.652 C189.304,146.927 146.927,189.304 94.652,189.304 C42.377,189.304 0,146.927 0,94.652 C0,42.377 42.377,0 94.652,0 C146.927,0 189.304,42.377 189.304,94.652" id="Fill-120" fill="#EEB0C0"></path>
                <path d="M56.76,59.616 C56.76,72.624 46.214,83.17 33.206,83.17 C20.197,83.17 9.652,72.624 9.652,59.616 C9.652,46.607 20.197,36.062 33.206,36.062 C46.214,36.062 56.76,46.607 56.76,59.616" id="Fill-121" fill="#C97E4D"></path>
                <path d="M47.781,62.838 C47.781,69.108 42.698,74.191 36.428,74.191 C30.158,74.191 25.076,69.108 25.076,62.838 C25.076,56.568 30.158,51.486 36.428,51.486 C42.698,51.486 47.781,56.568 47.781,62.838" id="Fill-122" fill="#F4C0A8"></path>
                <path d="M132.544,59.616 C132.544,72.624 143.09,83.17 156.098,83.17 C169.107,83.17 179.652,72.624 179.652,59.616 C179.652,46.607 169.107,36.062 156.098,36.062 C143.09,36.062 132.544,46.607 132.544,59.616" id="Fill-123" fill="#C97E4D"></path>
                <path d="M141.523,62.838 C141.523,69.108 146.606,74.191 152.876,74.191 C159.145,74.191 164.228,69.108 164.228,62.838 C164.228,56.568 159.145,51.486 152.876,51.486 C146.606,51.486 141.523,56.568 141.523,62.838" id="Fill-124" fill="#F4C0A8"></path>
                <path d="M164.6,105.421 C164.6,142.118 132.964,171.867 93.938,171.867 C54.912,171.867 23.275,142.118 23.275,105.421 C23.275,68.723 54.912,38.974 93.938,38.974 C132.964,38.974 164.6,68.723 164.6,105.421" id="Fill-125" fill="#C97E4D"></path>
                <path d="M93.331,113.908 C73.417,115.721 65.576,127.612 65.576,135.576 C65.576,143.54 72.032,149.997 79.997,149.997 C86.754,149.997 92.41,145.342 93.974,139.069 C95.537,145.342 101.193,149.997 107.95,149.997 C115.915,149.997 122.371,143.54 122.371,135.576 C122.371,127.612 110.483,113.908 93.331,113.908" id="Fill-126" fill="#FFFAF3"></path>
                <path d="M67.377,109.601 C67.377,114.173 63.671,117.879 59.099,117.879 C54.528,117.879 50.822,114.173 50.822,109.601 C50.822,105.03 54.528,101.324 59.099,101.324 C63.671,101.324 67.377,105.03 67.377,109.601" id="Fill-127" fill="#251914"></path>
                <path d="M54.308,109.601 C54.308,109.601 54.231,109.469 54.128,109.239 C54.022,109.031 53.925,108.631 53.915,108.194 C53.901,107.97 53.907,107.726 53.954,107.473 C53.984,107.213 54.075,106.958 54.162,106.686 C54.277,106.429 54.392,106.153 54.566,105.909 C54.719,105.649 54.93,105.427 55.132,105.198 C55.361,104.996 55.582,104.784 55.843,104.631 C56.085,104.454 56.363,104.342 56.619,104.226 C56.891,104.138 57.147,104.047 57.406,104.017 C57.659,103.97 57.903,103.963 58.127,103.978 C58.347,103.971 58.551,104.015 58.726,104.055 C58.9,104.083 59.05,104.14 59.17,104.193 C59.41,104.295 59.536,104.373 59.536,104.373 C59.536,104.373 59.405,104.464 59.197,104.59 C58.988,104.708 58.707,104.895 58.406,105.092 C57.797,105.506 57.134,106.025 56.546,106.611 C55.958,107.198 55.437,107.862 55.024,108.471 C54.827,108.778 54.643,109.02 54.523,109.259 C54.398,109.477 54.308,109.601 54.308,109.601" id="Fill-128" fill="#FFFFFE"></path>
                <path d="M137.125,109.601 C137.125,114.173 133.419,117.879 128.848,117.879 C124.276,117.879 120.57,114.173 120.57,109.601 C120.57,105.03 124.276,101.324 128.848,101.324 C133.419,101.324 137.125,105.03 137.125,109.601" id="Fill-129" fill="#251914"></path>
                <path d="M124.056,109.601 C124.056,109.601 123.979,109.469 123.876,109.239 C123.77,109.031 123.673,108.631 123.663,108.194 C123.649,107.97 123.655,107.726 123.703,107.473 C123.732,107.213 123.823,106.958 123.911,106.686 C124.025,106.429 124.14,106.153 124.315,105.909 C124.468,105.649 124.679,105.427 124.88,105.198 C125.109,104.996 125.331,104.784 125.591,104.631 C125.833,104.454 126.111,104.342 126.367,104.226 C126.639,104.138 126.895,104.047 127.154,104.017 C127.407,103.97 127.651,103.963 127.876,103.978 C128.095,103.971 128.299,104.015 128.475,104.055 C128.649,104.083 128.798,104.14 128.918,104.193 C129.158,104.295 129.284,104.373 129.284,104.373 C129.284,104.373 129.153,104.464 128.945,104.59 C128.736,104.708 128.456,104.895 128.154,105.092 C127.546,105.506 126.882,106.025 126.294,106.611 C125.706,107.198 125.185,107.862 124.772,108.471 C124.575,108.778 124.391,109.02 124.271,109.259 C124.146,109.477 124.056,109.601 124.056,109.601" id="Fill-130" fill="#FFFFFE"></path>
                <path d="M93.23,133.076 C93.682,133.98 93.23,137.117 93.23,137.117 C93.23,137.117 89.96,144.477 80.696,141.229 M94.717,133.076 C94.265,133.98 94.717,137.117 94.717,137.117 C94.717,137.117 97.987,144.477 107.251,141.229" id="Stroke-131" stroke="#4D4842" stroke-width="3" stroke-linecap="round" stroke-linejoin="round"></path>
                <path d="M99.857,124.091 L87.924,124.091 C86.287,124.091 85.278,125.562 86.128,126.714 C88.158,129.468 91.482,133.404 93.891,133.404 C96.299,133.404 99.623,129.468 101.653,126.714 C102.503,125.562 101.494,124.091 99.857,124.091" id="Fill-132" fill="#9A7359"></path>
            </g>
        </g>
    </g>
</svg>