<?xml version="1.0" encoding="UTF-8"?>
<svg width="190px" height="191px" viewBox="0 0 190 191" version="1.1" xmlns="http://www.w3.org/2000/svg" xmlns:xlink="http://www.w3.org/1999/xlink">
    <title>avatar-5</title>
    <g id="Page-1" stroke="none" stroke-width="1" fill="none" fill-rule="evenodd">
        <g id="44225-O40U0E" transform="translate(-543.000000, -323.000000)">
            <g id="avatar-5" transform="translate(543.045000, 323.907000)">
                <path d="M189.305,94.652 C189.305,146.927 146.928,189.305 94.653,189.305 C42.378,189.305 0,146.927 0,94.652 C0,42.377 42.378,0 94.653,0 C146.928,0 189.305,42.377 189.305,94.652" id="Fill-107" fill="#65BFBA"></path>
                <path d="M88.475,122.723 L100.831,122.723 C99.079,92.663 106.895,62.148 122.692,36.53 C114.06,33.46 104.559,31.967 94.653,31.967 C84.746,31.967 75.246,33.46 66.614,36.53 C82.411,62.148 90.226,92.663 88.475,122.723" id="Fill-109" fill="#FCEBD5"></path>
                <path d="M132.516,106.97 C144.257,103.646 155.029,97.128 163.603,88.453 C163.245,85.789 162.744,83.129 162.088,80.483 C156.422,57.626 141.653,43.273 122.692,36.53 C106.895,62.148 99.079,92.663 100.831,122.723 L88.475,122.723 C90.226,92.663 82.411,62.148 66.614,36.53 C47.653,43.273 32.883,57.626 27.217,80.483 C26.561,83.129 26.061,85.789 25.703,88.453 C34.277,97.128 45.049,103.646 56.789,106.97 C45.98,107.069 36.368,115.825 30.794,126.42 C41.007,149.362 63.95,161.34 94.653,161.34 C125.355,161.34 148.298,149.362 158.511,126.42 C152.937,115.825 143.325,107.069 132.516,106.97" id="Fill-110" fill="#FFFFFE"></path>
                <path d="M56.789,106.97 C45.049,103.646 34.277,97.128 25.703,88.453 C24.664,96.185 24.864,103.955 26.253,111.539 C26.295,111.77 26.349,111.994 26.393,112.223 C27.38,117.345 28.861,122.077 30.794,126.42 C36.368,115.825 45.98,107.069 56.789,106.97" id="Fill-111" fill="#FCEBD5"></path>
                <path d="M159.783,93.102 C159.967,93.594 160.142,94.089 160.309,94.586 C160.142,94.089 159.967,93.594 159.783,93.102 Z M163.052,111.539 C164.441,103.955 164.641,96.185 163.603,88.453 C155.029,97.128 144.257,103.646 132.516,106.97 C143.325,107.069 152.937,115.825 158.511,126.42 C160.444,122.077 161.926,117.345 162.913,112.223 C162.957,111.994 163.01,111.77 163.052,111.539 L163.052,111.539 Z" id="Fill-112" fill="#FCEBD5"></path>
                <path d="M68.725,104.311 C68.725,108.729 65.143,112.311 60.725,112.311 C56.307,112.311 52.725,108.729 52.725,104.311 C52.725,99.892 56.307,96.311 60.725,96.311 C65.143,96.311 68.725,99.892 68.725,104.311" id="Fill-113" fill="#251914"></path>
                <path d="M56.094,104.311 C56.094,104.311 56.017,104.183 55.913,103.96 C55.807,103.759 55.708,103.371 55.695,102.946 C55.652,102.507 55.746,102.002 55.927,101.479 C56.037,101.229 56.148,100.96 56.318,100.723 C56.466,100.47 56.671,100.254 56.867,100.031 C57.09,99.835 57.305,99.629 57.558,99.481 C57.794,99.31 58.064,99.201 58.313,99.089 C58.578,99.005 58.827,98.917 59.079,98.89 C59.325,98.846 59.563,98.841 59.781,98.857 C59.994,98.852 60.192,98.897 60.362,98.938 C60.531,98.967 60.676,99.024 60.793,99.077 C61.025,99.18 61.146,99.258 61.146,99.258 C61.146,99.258 61.02,99.349 60.819,99.474 C60.618,99.592 60.348,99.777 60.059,99.971 C59.476,100.38 58.844,100.883 58.281,101.445 C57.717,102.007 57.212,102.639 56.805,103.222 C56.611,103.517 56.428,103.749 56.309,103.98 C56.184,104.191 56.094,104.311 56.094,104.311" id="Fill-114" fill="#FFFFFE"></path>
                <path d="M136.134,104.311 C136.134,108.729 132.552,112.311 128.134,112.311 C123.715,112.311 120.134,108.729 120.134,104.311 C120.134,99.892 123.715,96.311 128.134,96.311 C132.552,96.311 136.134,99.892 136.134,104.311" id="Fill-115" fill="#251914"></path>
                <path d="M123.503,104.311 C123.503,104.311 123.425,104.183 123.322,103.96 C123.216,103.759 123.117,103.371 123.104,102.946 C123.061,102.507 123.155,102.002 123.336,101.479 C123.446,101.229 123.557,100.96 123.727,100.723 C123.875,100.47 124.08,100.254 124.276,100.031 C124.498,99.835 124.713,99.629 124.967,99.481 C125.202,99.31 125.473,99.201 125.722,99.089 C125.987,99.005 126.236,98.917 126.488,98.89 C126.734,98.846 126.972,98.841 127.19,98.857 C127.403,98.852 127.601,98.897 127.771,98.938 C127.94,98.967 128.085,99.024 128.202,99.077 C128.434,99.18 128.555,99.258 128.555,99.258 C128.555,99.258 128.429,99.349 128.228,99.474 C128.027,99.592 127.757,99.777 127.468,99.971 C126.885,100.38 126.253,100.883 125.689,101.445 C125.126,102.007 124.621,102.639 124.213,103.222 C124.02,103.517 123.837,103.749 123.717,103.98 C123.592,104.191 123.503,104.311 123.503,104.311" id="Fill-116" fill="#FFFFFE"></path>
                <path d="M82.986,127.425 C82.986,123.52 106.319,123.52 106.319,127.425 C106.319,131.33 101.096,134.496 94.653,134.496 C88.209,134.496 82.986,131.33 82.986,127.425" id="Fill-117" fill="#EEA033"></path>
                <path d="M88.121,32.593 C89.835,28.563 91.548,24.534 93.262,20.504 C93.953,18.878 94.671,17.212 95.898,15.94 C99.607,12.095 106.99,14.019 109.162,18.9 C111.334,23.781 108.723,29.923 104.143,32.673 C99.562,35.424 93.628,35.175 88.71,33.089" id="Fill-118" fill="#FCEBD5"></path>
                <path d="M118.153,124.805 C118.153,131.054 71.153,131.054 71.153,124.805 C71.153,118.557 81.674,113.491 94.653,113.491 C107.631,113.491 118.153,118.557 118.153,124.805" id="Fill-119" fill="#EEA033"></path>
            </g>
        </g>
    </g>
</svg>