<?xml version="1.0" encoding="UTF-8"?>
<svg width="191px" height="190px" viewBox="0 0 191 190" version="1.1" xmlns="http://www.w3.org/2000/svg" xmlns:xlink="http://www.w3.org/1999/xlink">
    <title>avatar-9</title>
    <g id="Page-1" stroke="none" stroke-width="1" fill="none" fill-rule="evenodd">
        <g id="44225-O40U0E" transform="translate(-74.000000, -103.000000)">
            <g id="avatar-9" transform="translate(74.732000, 103.435000)">
                <path d="M189.304,94.653 C189.304,146.928 146.927,189.305 94.652,189.305 C42.377,189.305 -1.42108547e-14,146.928 -1.42108547e-14,94.653 C-1.42108547e-14,42.378 42.377,0 94.652,0 C146.927,0 189.304,42.378 189.304,94.653" id="Fill-37" fill="#D4E18D"></path>
                <path d="M154.899,73.101 C143.712,46.453 121.373,35.307 94.652,35.307 C67.931,35.307 45.592,46.453 34.405,73.101 C30.627,82.102 26.861,96.686 27.178,106.366 C28.29,140.302 53.849,158.998 94.652,158.998 C135.455,158.998 161.014,140.302 162.126,106.366 C162.443,96.686 158.677,82.102 154.899,73.101" id="Fill-38" fill="#F3C48D"></path>
                <path d="M68.948,103.308 C68.948,107.727 65.366,111.308 60.948,111.308 C56.529,111.308 52.948,107.727 52.948,103.308 C52.948,98.89 56.529,95.308 60.948,95.308 C65.366,95.308 68.948,98.89 68.948,103.308" id="Fill-39" fill="#251914"></path>
                <path d="M56.316,103.308 C56.316,103.308 56.239,103.18 56.136,102.958 C56.03,102.757 55.931,102.369 55.918,101.943 C55.875,101.505 55.969,100.999 56.15,100.477 C56.26,100.226 56.371,99.958 56.54,99.721 C56.689,99.468 56.894,99.252 57.089,99.029 C57.312,98.833 57.527,98.627 57.78,98.478 C58.016,98.307 58.287,98.199 58.536,98.087 C58.801,98.003 59.05,97.915 59.302,97.888 C59.548,97.844 59.786,97.839 60.003,97.855 C60.216,97.85 60.415,97.895 60.585,97.936 C60.754,97.964 60.899,98.022 61.015,98.074 C61.248,98.177 61.369,98.256 61.369,98.256 C61.369,98.256 61.243,98.347 61.042,98.471 C60.84,98.589 60.571,98.775 60.282,98.969 C59.699,99.378 59.067,99.881 58.503,100.443 C57.94,101.005 57.434,101.637 57.027,102.22 C56.834,102.515 56.651,102.747 56.531,102.978 C56.406,103.189 56.316,103.308 56.316,103.308" id="Fill-40" fill="#FFFFFE"></path>
                <path d="M136.356,103.308 C136.356,107.727 132.775,111.308 128.356,111.308 C123.938,111.308 120.356,107.727 120.356,103.308 C120.356,98.89 123.938,95.308 128.356,95.308 C132.775,95.308 136.356,98.89 136.356,103.308" id="Fill-41" fill="#251914"></path>
                <path d="M123.725,103.308 C123.725,103.308 123.648,103.18 123.545,102.958 C123.439,102.757 123.34,102.369 123.327,101.943 C123.284,101.505 123.378,100.999 123.559,100.477 C123.669,100.226 123.78,99.958 123.949,99.721 C124.098,99.468 124.302,99.252 124.498,99.029 C124.721,98.833 124.936,98.627 125.189,98.478 C125.425,98.307 125.696,98.199 125.945,98.087 C126.21,98.003 126.459,97.915 126.711,97.888 C126.957,97.844 127.194,97.839 127.412,97.855 C127.625,97.85 127.824,97.895 127.994,97.936 C128.163,97.964 128.308,98.022 128.424,98.074 C128.657,98.177 128.778,98.256 128.778,98.256 C128.778,98.256 128.652,98.347 128.451,98.471 C128.249,98.589 127.98,98.775 127.691,98.969 C127.107,99.378 126.476,99.881 125.912,100.443 C125.349,101.005 124.843,101.637 124.436,102.22 C124.242,102.515 124.06,102.747 123.94,102.978 C123.815,103.189 123.725,103.308 123.725,103.308" id="Fill-42" fill="#FFFFFE"></path>
                <path d="M24.724,59.002 C20.301,55.812 15.078,53.778 9.679,53.019 C10.127,61.424 14.709,69.612 21.862,74.106 C25.391,76.324 31.871,77.375 37.12,76.261 C34.951,69.393 30.571,63.218 24.724,59.002" id="Fill-43" fill="#F4C0A8"></path>
                <path d="M44.946,65.233 C43.234,57.833 15.857,41.71 13.161,42.68 C11.09,43.425 10.222,45.864 9.896,48.04 C9.648,49.691 9.59,51.359 9.679,53.019 C15.078,53.778 20.301,55.812 24.724,59.002 C30.571,63.218 34.951,69.393 37.12,76.261 C42.421,75.137 46.467,71.806 44.946,65.233" id="Fill-44" fill="#C97E4D"></path>
                <path d="M164.58,59.002 C169.003,55.812 174.226,53.778 179.625,53.019 C179.177,61.424 174.595,69.612 167.442,74.106 C163.913,76.324 157.433,77.375 152.184,76.261 C154.353,69.393 158.733,63.218 164.58,59.002" id="Fill-45" fill="#F4C0A8"></path>
                <path d="M144.358,65.233 C146.07,57.833 173.447,41.71 176.143,42.68 C178.214,43.425 179.082,45.864 179.408,48.04 C179.656,49.691 179.714,51.359 179.625,53.019 C174.226,53.778 169.003,55.812 164.58,59.002 C158.733,63.218 154.353,69.393 152.184,76.261 C146.882,75.137 142.837,71.806 144.358,65.233" id="Fill-46" fill="#C97E4D"></path>
                <path d="M154.899,73.101 C143.712,46.453 121.373,35.307 94.652,35.307 C67.931,35.307 45.592,46.453 34.405,73.101 C30.627,82.102 26.861,96.686 27.178,106.366 C27.204,107.161 27.257,107.939 27.31,108.717 C30.141,91.373 41.366,75.469 56.98,67.316 C63.792,63.759 72.559,61.781 78.846,66.2 C84.014,69.833 85.804,76.575 86.878,82.8 C89.073,95.513 89.82,108.475 89.098,121.356 C89.003,123.057 88.616,122.326 88.624,124.029 C90.817,124.364 92.974,123.466 94.652,121.971 C96.33,123.466 98.487,124.364 100.68,124.029 C100.688,122.326 100.301,123.057 100.206,121.356 C99.484,108.475 100.231,95.513 102.426,82.8 C103.5,76.575 105.29,69.833 110.458,66.2 C116.745,61.781 125.512,63.759 132.324,67.316 C147.938,75.469 159.163,91.372 161.994,108.717 C162.047,107.939 162.1,107.161 162.126,106.366 C162.443,96.686 158.677,82.102 154.899,73.101" id="Fill-47" fill="#C97E4D"></path>
                <path d="M113.544,130.888 C113.544,139.038 105.086,145.645 94.652,145.645 C84.218,145.645 75.76,139.038 75.76,130.888 C75.76,122.738 84.218,116.131 94.652,116.131 C105.086,116.131 113.544,122.738 113.544,130.888" id="Fill-48" fill="#FFFBF0"></path>
                <path d="M93.933,123.814 C94.37,124.687 93.933,127.72 93.933,127.72 C93.933,127.72 90.773,134.833 81.819,131.693 M95.371,123.814 C94.934,124.687 95.371,127.72 95.371,127.72 C95.371,127.72 98.531,134.833 107.485,131.693" id="Stroke-49" stroke="#8F7C6A" stroke-width="3" stroke-linecap="round" stroke-linejoin="round"></path>
                <path d="M100.338,115.13 L88.805,115.13 C87.223,115.13 86.248,116.551 87.069,117.665 C89.032,120.327 92.244,124.13 94.572,124.13 C96.9,124.13 100.112,120.327 102.074,117.665 C102.895,116.551 101.92,115.13 100.338,115.13" id="Fill-50" fill="#9A7359"></path>
                <path d="M68.3,38.894 C72.43,30.285 71.77,16.478 65.445,12.073 C62.752,10.199 58.322,10.752 57.001,13.755 C55.468,17.238 58.479,22.075 55.797,24.774 C53.925,26.659 50.488,25.712 48.851,23.621 C47.213,21.529 46.845,18.751 46.387,16.134 C45.929,13.518 45.205,10.725 43.145,9.048 C40.149,6.255 34.915,7.231 32.191,10.29 C29.467,13.349 28.841,17.783 29.262,21.858 C30.349,32.392 39.326,42.886 49.911,45.788 C50.742,47.121 51.691,48.367 52.842,49.453 C56.205,52.626 61.705,54.046 65.51,51.417 C69.047,48.973 69.889,43.885 68.621,39.776 C68.529,39.475 68.41,39.187 68.3,38.894" id="Fill-51" fill="#9A7359"></path>
                <path d="M121.004,38.894 C116.874,30.285 117.534,16.478 123.859,12.073 C126.551,10.199 130.982,10.752 132.303,13.755 C133.836,17.238 130.825,22.075 133.507,24.774 C135.379,26.659 138.816,25.712 140.453,23.621 C142.091,21.529 142.459,18.751 142.917,16.134 C143.375,13.518 144.099,10.725 146.159,9.048 C149.155,6.255 154.389,7.231 157.113,10.29 C159.837,13.349 160.463,17.783 160.042,21.858 C158.954,32.392 149.978,42.886 139.393,45.788 C138.562,47.121 137.613,48.367 136.462,49.453 C133.098,52.626 127.599,54.046 123.794,51.417 C120.257,48.973 119.415,43.885 120.683,39.776 C120.775,39.475 120.894,39.187 121.004,38.894" id="Fill-52" fill="#9A7359"></path>
            </g>
        </g>
    </g>
</svg>