<?xml version="1.0" encoding="UTF-8"?>
<svg width="190px" height="190px" viewBox="0 0 190 190" version="1.1" xmlns="http://www.w3.org/2000/svg" xmlns:xlink="http://www.w3.org/1999/xlink">
    <title>avatar-7</title>
    <g id="Page-1" stroke="none" stroke-width="1" fill="none" fill-rule="evenodd">
        <g id="44225-O40U0E" transform="translate(-73.000000, -325.000000)">
            <g id="avatar-7" transform="translate(73.466000, 325.565000)">
                <path d="M189.304,94.653 C189.304,146.928 146.927,189.305 94.652,189.305 C42.377,189.305 0,146.928 0,94.653 C0,42.378 42.377,0 94.652,0 C146.927,0 189.304,42.378 189.304,94.653" id="Fill-69" fill="#65BFBA"></path>
                <path d="M35.337,25.713 L51.776,25.272 C44.504,20.387 36.735,16.744 28.368,14.792 C23.161,13.577 19.18,18.409 19.875,24.928 C20.742,33.05 22.352,40.498 24.449,47.394 L28.111,31.613 C28.896,28.231 31.866,25.806 35.337,25.713" id="Fill-70" fill="#251914"></path>
                <path d="M75.513,47.066 C68.205,38.504 60.336,31.024 51.776,25.272 L35.337,25.713 C31.866,25.806 28.896,28.231 28.111,31.613 L24.449,47.394 C27.944,58.89 32.789,68.849 37.787,77.834 L75.513,47.066" id="Fill-71" fill="#EEA033"></path>
                <path d="M45.34,78.814 C39.48,67.961 34.057,55.442 32.761,39.697 C32.377,35.032 35.407,31.595 39.222,32.457 C52.609,35.484 63.959,44.239 74.046,55.79 L45.34,78.814" id="Fill-72" fill="#F4C0A8"></path>
                <path d="M153.967,25.713 L137.528,25.272 C144.8,20.387 152.569,16.744 160.936,14.792 C166.143,13.577 170.124,18.409 169.429,24.928 C168.562,33.05 166.952,40.498 164.855,47.394 L161.193,31.613 C160.408,28.231 157.438,25.806 153.967,25.713" id="Fill-73" fill="#251914"></path>
                <path d="M113.791,47.066 C121.099,38.504 128.968,31.024 137.528,25.272 L153.967,25.713 C157.438,25.806 160.408,28.231 161.193,31.613 L164.855,47.394 C161.36,58.89 156.515,68.849 151.517,77.834 L113.791,47.066" id="Fill-74" fill="#EEA033"></path>
                <path d="M143.964,78.814 C149.824,67.961 155.247,55.442 156.543,39.697 C156.927,35.032 153.897,31.595 150.082,32.457 C136.695,35.484 125.345,44.239 115.258,55.79 L143.964,78.814" id="Fill-75" fill="#F4C0A8"></path>
                <path d="M154.412,74.102 C143.225,47.454 120.887,36.307 94.166,36.307 C67.444,36.307 45.106,47.454 33.919,74.102 C30.14,83.103 26.375,97.686 26.692,107.366 C27.804,141.303 53.363,159.999 94.166,159.999 C134.968,159.999 160.527,141.303 161.639,107.366 C161.956,97.686 158.191,83.103 154.412,74.102" id="Fill-76" fill="#EEA033"></path>
                <path d="M99.65,124.982 C97.855,124.875 96.027,124.814 94.166,124.814 C92.641,124.814 91.139,124.854 89.658,124.927 C90.841,105.368 24.012,104.97 18.541,114.238 C21.12,128.837 31.998,139.612 43.117,146.204 C54.038,152.679 66.353,157.256 78.487,159.748 C78.501,159.703 78.518,159.659 78.533,159.614 C83.346,160.505 88.626,160.999 94.166,160.999 C100.059,160.999 105.654,160.438 110.711,159.436 C110.745,159.54 110.784,159.645 110.817,159.748 C122.951,157.256 135.266,152.679 146.187,146.204 C157.306,139.612 168.184,128.837 170.763,114.238 C165.292,104.97 98.452,105.406 99.65,124.982" id="Fill-77" fill="#FFFBF0"></path>
                <path d="M68.461,104.309 C68.461,108.727 64.879,112.309 60.461,112.309 C56.043,112.309 52.461,108.727 52.461,104.309 C52.461,99.891 56.043,96.309 60.461,96.309 C64.879,96.309 68.461,99.891 68.461,104.309" id="Fill-78" fill="#251914"></path>
                <path d="M55.83,104.309 C55.83,104.309 55.753,104.181 55.65,103.958 C55.543,103.757 55.445,103.369 55.432,102.944 C55.389,102.506 55.483,102 55.664,101.477 C55.774,101.227 55.885,100.958 56.054,100.721 C56.202,100.468 56.407,100.252 56.603,100.029 C56.826,99.833 57.041,99.627 57.294,99.479 C57.53,99.308 57.8,99.199 58.05,99.087 C58.314,99.003 58.563,98.916 58.815,98.888 C59.062,98.844 59.299,98.839 59.517,98.855 C59.73,98.85 59.929,98.895 60.099,98.936 C60.268,98.965 60.412,99.022 60.529,99.075 C60.761,99.178 60.883,99.256 60.883,99.256 C60.883,99.256 60.756,99.347 60.555,99.472 C60.354,99.59 60.085,99.775 59.795,99.97 C59.212,100.378 58.581,100.881 58.017,101.443 C57.454,102.005 56.948,102.637 56.541,103.221 C56.347,103.515 56.165,103.747 56.045,103.978 C55.92,104.189 55.83,104.309 55.83,104.309" id="Fill-79" fill="#FFFFFE"></path>
                <path d="M135.87,104.309 C135.87,108.727 132.288,112.309 127.87,112.309 C123.452,112.309 119.87,108.727 119.87,104.309 C119.87,99.891 123.452,96.309 127.87,96.309 C132.288,96.309 135.87,99.891 135.87,104.309" id="Fill-80" fill="#251914"></path>
                <path d="M123.239,104.309 C123.239,104.309 123.162,104.181 123.059,103.958 C122.952,103.757 122.854,103.369 122.841,102.944 C122.797,102.506 122.891,102 123.073,101.477 C123.183,101.227 123.294,100.958 123.463,100.721 C123.611,100.468 123.816,100.252 124.012,100.029 C124.235,99.833 124.45,99.627 124.703,99.479 C124.939,99.308 125.209,99.199 125.459,99.087 C125.723,99.003 125.972,98.916 126.224,98.888 C126.471,98.844 126.708,98.839 126.926,98.855 C127.139,98.85 127.337,98.895 127.508,98.936 C127.676,98.965 127.821,99.022 127.938,99.075 C128.17,99.178 128.292,99.256 128.292,99.256 C128.292,99.256 128.165,99.347 127.964,99.472 C127.763,99.59 127.493,99.775 127.204,99.97 C126.621,100.378 125.989,100.881 125.426,101.443 C124.862,102.005 124.357,102.637 123.95,103.221 C123.756,103.515 123.573,103.747 123.454,103.978 C123.329,104.189 123.239,104.309 123.239,104.309" id="Fill-81" fill="#FFFFFE"></path>
                <path d="M113.057,131.888 C113.057,140.038 104.599,146.645 94.166,146.645 C83.732,146.645 75.274,140.038 75.274,131.888 C75.274,123.738 83.732,117.132 94.166,117.132 C104.599,117.132 113.057,123.738 113.057,131.888" id="Fill-82" fill="#FFFBF0"></path>
                <path d="M93.447,124.814 C93.884,125.687 93.447,128.72 93.447,128.72 C93.447,128.72 90.287,135.833 81.333,132.694 M94.884,124.814 C94.448,125.687 94.884,128.72 94.884,128.72 C94.884,128.72 98.044,135.833 106.998,132.694" id="Stroke-83" stroke="#8F7C6A" stroke-width="3" stroke-linecap="round" stroke-linejoin="round"></path>
                <path d="M99.852,116.131 L88.319,116.131 C86.737,116.131 85.762,117.552 86.583,118.665 C88.545,121.327 91.757,125.131 94.085,125.131 C96.413,125.131 99.625,121.327 101.588,118.665 C102.409,117.552 101.434,116.131 99.852,116.131" id="Fill-84" fill="#251914"></path>
            </g>
        </g>
    </g>
</svg>