<?xml version="1.0" encoding="UTF-8"?>
<svg width="190px" height="190px" viewBox="0 0 190 190" version="1.1" xmlns="http://www.w3.org/2000/svg" xmlns:xlink="http://www.w3.org/1999/xlink">
    <title>avatar-8</title>
    <g id="Page-1" stroke="none" stroke-width="1" fill="none" fill-rule="evenodd">
        <g id="44225-O40U0E" transform="translate(-305.000000, -325.000000)">
            <g id="avatar-8" transform="translate(305.348000, 325.565000)">
                <path d="M189.304,94.653 C189.304,146.928 146.927,189.305 94.652,189.305 C42.377,189.305 0,146.928 0,94.653 C0,42.378 42.377,0 94.652,0 C146.927,0 189.304,42.378 189.304,94.653" id="Fill-53" fill="#C097BA"></path>
                <path d="M155.097,73.101 C143.911,46.453 121.572,35.306 94.851,35.306 C68.13,35.306 45.791,46.453 34.604,73.101 C30.825,82.102 27.06,96.686 27.377,106.366 C28.489,140.302 54.048,158.998 94.851,158.998 C135.653,158.998 161.212,140.302 162.324,106.366 C162.642,96.686 158.876,82.102 155.097,73.101" id="Fill-54" fill="#F4B65E"></path>
                <path d="M69.146,103.308 C69.146,107.727 65.565,111.308 61.146,111.308 C56.728,111.308 53.146,107.727 53.146,103.308 C53.146,98.89 56.728,95.308 61.146,95.308 C65.565,95.308 69.146,98.89 69.146,103.308" id="Fill-55" fill="#251914"></path>
                <path d="M56.515,103.308 C56.515,103.308 56.438,103.18 56.335,102.958 C56.229,102.757 56.13,102.369 56.117,101.943 C56.074,101.505 56.168,100.999 56.349,100.477 C56.459,100.226 56.57,99.957 56.739,99.72 C56.887,99.467 57.092,99.252 57.288,99.029 C57.511,98.833 57.726,98.627 57.979,98.478 C58.215,98.307 58.485,98.198 58.735,98.087 C58.999,98.003 59.248,97.915 59.501,97.888 C59.747,97.844 59.984,97.839 60.202,97.855 C60.415,97.85 60.614,97.895 60.784,97.935 C60.953,97.964 61.098,98.021 61.214,98.074 C61.447,98.177 61.568,98.256 61.568,98.256 C61.568,98.256 61.441,98.346 61.241,98.471 C61.039,98.589 60.77,98.775 60.48,98.969 C59.897,99.377 59.266,99.881 58.702,100.442 C58.139,101.004 57.633,101.636 57.226,102.22 C57.032,102.515 56.85,102.746 56.73,102.978 C56.605,103.189 56.515,103.308 56.515,103.308" id="Fill-56" fill="#FFFFFE"></path>
                <path d="M136.555,103.308 C136.555,107.727 132.973,111.308 128.555,111.308 C124.137,111.308 120.555,107.727 120.555,103.308 C120.555,98.89 124.137,95.308 128.555,95.308 C132.973,95.308 136.555,98.89 136.555,103.308" id="Fill-57" fill="#251914"></path>
                <path d="M123.924,103.308 C123.924,103.308 123.847,103.18 123.744,102.958 C123.637,102.757 123.539,102.369 123.526,101.943 C123.483,101.505 123.577,100.999 123.758,100.477 C123.868,100.226 123.979,99.957 124.148,99.72 C124.296,99.467 124.501,99.252 124.697,99.029 C124.92,98.833 125.135,98.627 125.388,98.478 C125.624,98.307 125.894,98.198 126.144,98.087 C126.408,98.003 126.657,97.915 126.909,97.888 C127.156,97.844 127.393,97.839 127.611,97.855 C127.824,97.85 128.023,97.895 128.193,97.935 C128.362,97.964 128.506,98.021 128.623,98.074 C128.855,98.177 128.977,98.256 128.977,98.256 C128.977,98.256 128.85,98.346 128.649,98.471 C128.448,98.589 128.178,98.775 127.889,98.969 C127.306,99.377 126.675,99.881 126.111,100.442 C125.548,101.004 125.042,101.636 124.635,102.22 C124.441,102.515 124.259,102.746 124.139,102.978 C124.014,103.189 123.924,103.308 123.924,103.308" id="Fill-58" fill="#FFFFFE"></path>
                <path d="M26.167,57.642 C21.404,54.207 15.779,52.016 9.966,51.2 C10.448,60.25 15.382,69.066 23.085,73.906 C26.885,76.294 33.863,77.426 39.515,76.227 C37.179,68.831 32.463,62.182 26.167,57.642" id="Fill-59" fill="#F4C0A8"></path>
                <path d="M47.942,64.351 C48.291,37.702 16.619,39.021 13.715,40.066 C11.485,40.868 10.551,43.495 10.199,45.839 C9.932,47.616 9.871,49.412 9.966,51.2 C15.779,52.016 21.404,54.207 26.167,57.642 C32.463,62.182 37.179,68.831 39.515,76.227 C45.223,75.016 47.847,71.615 47.942,64.351" id="Fill-60" fill="#CE692D"></path>
                <path d="M163.534,57.642 C168.298,54.207 173.922,52.016 179.735,51.2 C179.253,60.25 174.319,69.066 166.617,73.906 C162.816,76.294 155.839,77.426 150.186,76.227 C152.522,68.831 157.238,62.182 163.534,57.642" id="Fill-61" fill="#F4C0A8"></path>
                <path d="M141.759,64.351 C141.411,37.702 173.083,39.021 175.986,40.066 C178.216,40.868 179.15,43.495 179.502,45.839 C179.769,47.616 179.831,49.412 179.735,51.2 C173.922,52.016 168.298,54.207 163.534,57.642 C157.238,62.182 152.522,68.831 150.186,76.227 C144.478,75.016 141.854,71.615 141.759,64.351" id="Fill-62" fill="#CE692D"></path>
                <path d="M155.097,73.101 C143.911,46.453 121.572,35.306 94.851,35.306 C68.13,35.306 45.791,46.453 34.604,73.101 C30.825,82.102 27.06,96.686 27.377,106.366 C27.403,107.161 27.456,107.939 27.509,108.717 C30.339,91.373 41.565,78.47 57.179,70.318 C63.991,66.761 72.758,64.783 79.045,69.202 C84.212,72.834 86.002,79.577 87.077,85.801 C89.272,98.514 90.018,108.475 89.297,121.356 C89.202,123.056 88.814,122.326 88.823,124.029 C91.016,124.364 93.172,123.466 94.851,121.97 C96.529,123.466 98.686,124.364 100.879,124.029 C100.887,122.326 100.5,123.056 100.404,121.356 C99.683,108.475 100.429,98.514 102.624,85.801 C103.699,79.577 105.489,72.834 110.657,69.202 C116.944,64.783 125.71,66.761 132.522,70.318 C148.136,78.47 159.362,91.372 162.193,108.716 C162.245,107.939 162.298,107.16 162.324,106.366 C162.642,96.686 158.876,82.102 155.097,73.101" id="Fill-63" fill="#CE692D"></path>
                <path d="M155.097,73.101 C143.911,46.453 121.572,35.306 94.851,35.306 C68.13,35.306 45.791,46.453 34.604,73.101 C30.825,82.102 27.06,96.686 27.377,106.366 C27.403,107.161 27.456,107.939 27.509,108.717 C30.339,91.373 41.565,78.47 57.179,70.318 C63.991,66.761 72.758,64.783 79.045,69.202 C84.212,72.834 86.002,79.577 87.077,85.801 C89.272,98.514 90.018,108.475 89.297,121.356 C89.202,123.056 88.814,122.326 88.823,124.029 C91.016,124.364 93.172,123.466 94.851,121.97 C96.529,123.466 98.686,124.364 100.879,124.029 C100.887,122.326 100.5,123.056 100.404,121.356 C99.683,108.475 100.429,98.514 102.624,85.801 C103.699,79.577 105.489,72.834 110.657,69.202 C116.944,64.783 125.71,66.761 132.522,70.318 C148.136,78.47 159.362,91.372 162.193,108.716 C162.245,107.939 162.298,107.16 162.324,106.366 C162.642,96.686 158.876,82.102 155.097,73.101 Z" id="Stroke-64" stroke="#CE692D" stroke-width="4"></path>
                <path d="M156.031,103.751 C150.765,102.222 143.829,103.434 138.104,108.932 C134.124,112.754 107.397,144.004 94.851,144.004 C82.305,144.004 55.666,112.66 51.597,108.932 C46.537,104.294 38.936,103.223 33.67,104.752 C28.404,106.281 23.85,111.324 23.85,117.145 C23.85,147.233 74.962,163.031 96.659,162.936426 C117.152,162.847 165.851,147.696 165.851,116.145 C165.851,110.324 161.298,105.281 156.031,103.751" id="Fill-65" fill="#FFFBF0"></path>
                <path d="M113.743,130.888 C113.743,139.038 105.284,145.645 94.851,145.645 C84.417,145.645 75.959,139.038 75.959,130.888 C75.959,122.738 84.417,116.131 94.851,116.131 C105.284,116.131 113.743,122.738 113.743,130.888" id="Fill-66" fill="#FFFBF0"></path>
                <path d="M94.132,123.813 C94.569,124.687 94.132,127.719 94.132,127.719 C94.132,127.719 90.972,134.833 82.018,131.693 M95.569,123.813 C95.133,124.687 95.569,127.719 95.569,127.719 C95.569,127.719 98.73,134.833 107.683,131.693" id="Stroke-67" stroke="#8F7C6A" stroke-width="3" stroke-linecap="round" stroke-linejoin="round"></path>
                <path d="M100.537,115.13 L89.004,115.13 C87.422,115.13 86.447,116.551 87.268,117.664 C89.231,120.326 92.442,124.13 94.77,124.13 C97.098,124.13 100.31,120.326 102.273,117.664 C103.094,116.551 102.119,115.13 100.537,115.13" id="Fill-68" fill="#7F5A40"></path>
            </g>
        </g>
    </g>
</svg>